Release Info:

General

Format                                   : MPEG-4
Format profile                           : Base Media
Codec ID                                 : isom
File size                                : 699 MiB
Duration                                 : 1h 34mn
Overall bit rate                         : 1 033 Kbps

Video
ID                                       : 1
Format                                   : AVC
Format/Info                              : Advanced Video Codec
Format profile                           : High@L3.0
Format settings, CABAC                   : Yes
Format settings, ReFrames                : 4 frames
Codec ID                                 : avc1
Codec ID/Info                            : Advanced Video Coding
Duration                                 : 1h 34mn
Bit rate                                 : 903 Kbps
Maximum bit rate                         : 3 637 Kbps
Width                                    : 720 pixels
Height                                   : 304 pixels
Display aspect ratio                     : 2.35:1
Frame rate mode                          : Constant
Frame rate                               : 23.976 fps
Color space                              : YUV
Chroma subsampling                       : 4:2:0
Bit depth                                : 8 bits
Scan type                                : Progressive
Bits/(Pixel*Frame)                       : 0.172
Stream size                              : 610 MiB (87%)
Writing library                          : x264 core 125 r2200 999b753


Audio
ID                                       : 2
Format                                   : MPEG Audio
Format version                           : Version 1
Format profile                           : Layer 3
Mode                                     : Joint stereo
Mode extension                           : MS Stereo
Codec ID                                 : 6B
Duration                                 : 1h 34mn
Bit rate mode                            : Constant
Bit rate                                 : 128 Kbps
Maximum bit rate                         : 132 Kbps
Channel(s)                               : 2 channels
Sampling rate                            : 48.0 KHz
Compression mode                         : Lossy
Delay relative to video                  : 83ms
Stream size                              : 86.4 MiB (12%)

Source:
credit to original movie ripper BTRG (Thanks)


Movie Info:

Director:
Sanghamitra Chowdhury
Producer:
Tri Colour Entertainment
Music:
Debasish Chowdhury
Main Cast:
Arpita Mukherjee, Abhishek Chatterjee, Indrani, Angshuman...  more
Genre:
Drama
Release:
May 06, 2011
Review:
Quite a different side of Tagore 

A group of young boys and girls want to go to Santiniketan just for the sake of fun. They belong to a generation to whom life is just technology- cell phone, I-pod and computers and nothing else. They accompany their elder brother, a researcher, Abhijit Sen. But slowly things change for good. Under the magic wand of the immortal poet, the Nobel Laureate, this new generation began to enjoy the spell of Tagore and his creation. They make a documentary on Tagore, on a subject which many a Tagore fans are not aware of based on the essay by Padmasree Amitabha Chaudhuri- ...

Screen Shot:
 
http://www.shotpix.com/images/74296306263346305092.png 
http://www.shotpix.com/images/69477032540997085871.png 
http://www.shotpix.com/images/97289757975738303792.png 
http://www.shotpix.com/images/95037154329590312367.png 
http://www.shotpix.com/images/62963737755821815482.png 
http://www.shotpix.com/images/04621468192333545427.png 
http://www.shotpix.com/images/05062233777920153479.png 
http://www.shotpix.com/images/98958030095230028882.png 
http://www.shotpix.com/images/60231876571475443421.png